<?xml version="1.0" encoding="UTF-8" standalone="no"?><!-- Generator: Gravit.io --><svg xmlns="http://www.w3.org/2000/svg" xmlns:xlink="http://www.w3.org/1999/xlink" style="isolation:isolate" viewBox="0 0 500 500" width="500pt" height="500pt"><defs><clipPath id="_clipPath_GiSsgE3LDuKOwhhPOORl3JLqJd3GKKjB"><rect width="500" height="500"/></clipPath></defs><g clip-path="url(#_clipPath_GiSsgE3LDuKOwhhPOORl3JLqJd3GKKjB)"><linearGradient id="_lgradient_0" x1="0.5029411764705882" y1="0.02464788732394363" x2="0.5029411764705883" y2="1.012910798122066" gradientTransform="matrix(471.69,0,0,394,14.155,53)" gradientUnits="userSpaceOnUse"><stop offset="0.8333333333333334%" stop-opacity="1" style="stop-color:rgb(159,0,40)"/><stop offset="97.5%" stop-opacity="1" style="stop-color:rgb(255,45,157)"/><stop offset="100%" stop-opacity="1" style="stop-color:rgb(253,44,155)"/></linearGradient><path d=" M 14.155 69.648 L 14.155 430.352 C 14.155 439.54 21.615 447 30.803 447 L 469.197 447 C 478.385 447 485.845 439.54 485.845 430.352 L 485.845 129.303 C 485.845 120.115 478.385 112.655 469.197 112.655 L 291.62 112.655 C 282.431 112.655 268.78 108.495 261.153 103.371 L 200.002 62.284 C 192.375 57.16 178.723 53 169.535 53 L 30.803 53 C 21.615 53 14.155 60.46 14.155 69.648 Z " fill="url(#_lgradient_0)"/><clipPath id="_clipPath_2WkAn4vaHk02omBNsrQE2dapq1Fboahg"><path d=" M 14.155 69.648 L 14.155 430.352 C 14.155 439.54 21.615 447 30.803 447 L 469.197 447 C 478.385 447 485.845 439.54 485.845 430.352 L 485.845 129.303 C 485.845 120.115 478.385 112.655 469.197 112.655 L 291.62 112.655 C 282.431 112.655 268.78 108.495 261.153 103.371 L 200.002 62.284 C 192.375 57.16 178.723 53 169.535 53 L 30.803 53 C 21.615 53 14.155 60.46 14.155 69.648 Z " fill="url(#_lgradient_0)"/></clipPath><g clip-path="url(#_clipPath_2WkAn4vaHk02omBNsrQE2dapq1Fboahg)"><linearGradient id="_lgradient_1" x1="0.5029411764705882" y1="0.02464788732394363" x2="0.5029411764705883" y2="1.012910798122066" gradientTransform="matrix(502.211,0,0,345.444,3.056,112.655)" gradientUnits="userSpaceOnUse"><stop offset="0%" stop-opacity="1" style="stop-color:rgb(255,0,64)"/><stop offset="98.33333333333333%" stop-opacity="1" style="stop-color:rgb(249,0,133)"/></linearGradient><path d=" M 251.774 127.878 L 196.622 164.072 C 190.861 167.853 180.588 170.923 173.697 170.923 L 3.056 170.923 L 3.056 458.099 L 505.268 458.099 L 505.268 112.655 L 302.718 112.655 C 287.405 112.655 264.577 119.476 251.774 127.878 Z " fill="url(#_lgradient_1)"/></g></g></svg>