<?xml version="1.0" encoding="UTF-8" standalone="no"?><!-- Generator: Gravit.io --><svg xmlns="http://www.w3.org/2000/svg" xmlns:xlink="http://www.w3.org/1999/xlink" style="isolation:isolate" viewBox="0 0 200 200" width="200pt" height="200pt"><defs><clipPath id="_clipPath_nPITfynDvmOHz6FFaRFjjWPFaNOcaelW"><rect width="200" height="200"/></clipPath></defs><g clip-path="url(#_clipPath_nPITfynDvmOHz6FFaRFjjWPFaNOcaelW)"><linearGradient id="_lgradient_6" x1="0.5257936507936507" y1="0.003968253968253836" x2="0.5257936507936508" y2="0.9980158730158731" gradientTransform="matrix(191.125,0,0,191.125,4.438,4.438)" gradientUnits="userSpaceOnUse"><stop offset="0%" stop-opacity="1" style="stop-color:rgb(255,0,47)"/><stop offset="97.91666666666666%" stop-opacity="1" style="stop-color:rgb(128,0,87)"/></linearGradient><path d=" M 16.572 4.438 L 156.124 4.438 C 158.636 4.438 162.116 5.879 163.892 7.655 L 192.345 36.108 C 194.121 37.884 195.563 41.364 195.563 43.876 L 195.563 183.428 C 195.563 190.125 190.125 195.563 183.428 195.563 L 16.572 195.563 C 9.875 195.563 4.438 190.125 4.438 183.428 L 4.438 16.572 C 4.438 9.875 9.875 4.438 16.572 4.438 Z " fill="url(#_lgradient_6)"/><clipPath id="_clipPath_EbAteMD4OX3rsH7MTsfpvFx5r19XW0Pr"><path d=" M 16.572 4.438 L 156.124 4.438 C 158.636 4.438 162.116 5.879 163.892 7.655 L 192.345 36.108 C 194.121 37.884 195.563 41.364 195.563 43.876 L 195.563 183.428 C 195.563 190.125 190.125 195.563 183.428 195.563 L 16.572 195.563 C 9.875 195.563 4.438 190.125 4.438 183.428 L 4.438 16.572 C 4.438 9.875 9.875 4.438 16.572 4.438 Z " fill="url(#_lgradient_6)"/></clipPath><g clip-path="url(#_clipPath_EbAteMD4OX3rsH7MTsfpvFx5r19XW0Pr)"><defs><linearGradient id="_lgradient_7" x1="0.5257936507936507" y1="0.003968253968253836" x2="0.5257936507936508" y2="0.9980158730158731"><stop offset="1.25%" style="stop-color:#8C7878"/><stop offset="100%" style="stop-color:#C39292"/></linearGradient></defs><path d="M 45.979 -7.7 L 120.651 -7.7 C 127.671 -7.7 133.37 -2 133.37 5.02 L 133.37 44.81 C 133.37 51.83 127.671 57.53 120.651 57.53 L 45.979 57.53 C 38.959 57.53 33.26 51.83 33.26 44.81 L 33.26 5.02 C 33.26 -2 38.959 -7.7 45.979 -7.7 Z" style="stroke:none;fill:url(#_lgradient_7);stroke-miterlimit:10;"/><defs><linearGradient id="_lgradient_8" x1="0.3740601503759402" y1="0.0024271844660194164" x2="0.37406015037593987" y2="0.8276699029126213"><stop offset="0.8333333333333334%" style="stop-color:#BF003C"/><stop offset="99.58333333333333%" style="stop-color:#6A0343"/></linearGradient></defs><path d="M 68.592 66.63 L 187.528 66.63 C 210.378 66.63 228.93 85.182 228.93 108.034 L 228.93 181.466 C 228.93 204.318 210.378 222.87 187.528 222.87 L 68.592 222.87 C 45.742 222.87 27.19 204.318 27.19 181.466 L 27.19 108.034 C 27.19 85.182 45.742 66.63 68.592 66.63 Z" style="stroke:none;fill:url(#_lgradient_8);stroke-miterlimit:10;"/><path d="M 112.759 13.54 L 114.551 13.54 C 118.243 13.54 121.24 16.537 121.24 20.228 L 121.24 38.702 C 121.24 42.393 118.243 45.39 114.551 45.39 L 112.759 45.39 C 109.067 45.39 106.07 42.393 106.07 38.702 L 106.07 20.228 C 106.07 16.537 109.067 13.54 112.759 13.54 Z" style="stroke:none;fill:#BE003D;stroke-miterlimit:10;"/></g><path d="M 72.938 86.35 L 163.462 86.35 C 172.805 86.35 180.39 93.935 180.39 103.277 L 180.39 163.463 C 180.39 172.805 172.805 180.39 163.462 180.39 L 72.938 180.39 C 63.595 180.39 56.01 172.805 56.01 163.463 L 56.01 103.277 C 56.01 93.935 63.595 86.35 72.938 86.35 Z" style="stroke:none;fill:#FDC9C9;stroke-miterlimit:10;"/><path d="M 78.768 104.55 L 163.713 104.55 C 167.061 104.55 169.78 107.27 169.78 110.62 L 169.78 110.62 C 169.78 113.97 167.061 116.69 163.713 116.69 L 78.768 116.69 C 75.419 116.69 72.7 113.97 72.7 110.62 L 72.7 110.62 C 72.7 107.27 75.419 104.55 78.768 104.55 Z" style="stroke:none;fill:#D7ADAD;stroke-miterlimit:10;"/><path d="M 87.269 127.3 L 155.201 127.3 C 158.22 127.3 160.67 129.752 160.67 132.771 L 160.67 133.969 C 160.67 136.988 158.22 139.44 155.201 139.44 L 87.269 139.44 C 84.25 139.44 81.8 136.988 81.8 133.969 L 81.8 132.771 C 81.8 129.752 84.25 127.3 87.269 127.3 Z" style="stroke:none;fill:#D7ADAD;stroke-miterlimit:10;"/><path d="M 97.095 150.06 L 145.385 150.06 C 147.965 150.06 150.06 152.154 150.06 154.733 L 150.06 157.517 C 150.06 160.096 147.965 162.19 145.385 162.19 L 97.095 162.19 C 94.515 162.19 92.42 160.096 92.42 157.517 L 92.42 154.733 C 92.42 152.154 94.515 150.06 97.095 150.06 Z" style="stroke:none;fill:#D7ADAD;stroke-miterlimit:10;"/></g></svg>